#!OML:ASF H:\LiuWeirdWalks\Patient Classification 1\Patient 1\Session 1\male.ASF
:FULLY-SPECIFIED
:DEGREES
2032
root 0.0905735 17.7375 -29.7462 180.852 -5.3301 182.441
lowerback 3.26396 1.22829 -1.89264
upperback -1.75654 1.58606 2.38516
thorax -3.76408 0.849823 3.42526
lowerneck -16.8888 3.94297 6.04241
upperneck 18.8632 5.30679 -7.97813
head 9.09307 1.92972 -3.07607
rclavicle 2.66185e-014 1.98785e-016
rhumerus -30.1469 -13.8239 -74.8036
rradius 29.7381
rwrist -6.8217
rhand -18.0551 -3.1639
rfingers 7.12502
rthumb 8.21717 -32.9841
lclavicle 2.66185e-014 1.98785e-016
lhumerus -39.8508 19.8957 73.8076
lradius 16.1795
lwrist -8.93969
lhand -15.0278 -1.97198
lfingers 7.12502
lthumb 11.138 27.7124
rfemur -12.8024 -1.31679 20.4186
rtibia 35.462
rfoot -15.5821 -17.4282
rtoes -4.35371
lfemur -7.82862 -3.68827 -16.6931
ltibia 31.9335
lfoot -16.1792 13.1373
ltoes -9.49626
2033
root 0.108428 17.7382 -29.7514 180.89 -5.5049 182.539
lowerback 3.29481 1.25752 -1.75858
upperback -1.77389 1.63041 2.37434
thorax -3.79838 0.868654 3.33463
lowerneck -17.0291 3.84491 5.84554
upperneck 19.0581 5.18072 -7.78004
head 9.16458 1.87107 -2.99311
rclavicle -3.60918e-015 -8.15017e-015
rhumerus -30.1314 -13.9545 -74.7386
rradius 29.7868
rwrist -6.80281
rhand -18.0395 -3.16686
rfingers 7.12502
rthumb 8.23226 -32.9865
lclavicle -3.60918e-015 -8.15017e-015
lhumerus -39.7656 19.7265 73.7278
lradius 16.2851
lwrist -8.59825
lhand -15.021 -1.93639
lfingers 7.12502
lthumb 11.1445 27.7477
rfemur -12.7818 -1.39519 20.5942
rtibia 35.385
rfoot -15.6192 -17.5005
rtoes -4.24327
lfemur -7.92198 -3.78412 -16.5092
ltibia 31.9749
lfoot -16.215 13.0734
ltoes -9.45499
2034
root 0.126267 17.7387 -29.7567 180.927 -5.68783 182.598
lowerback 3.33785 1.28687 -1.65872
upperback -1.79139 1.67361 2.34883
thorax -3.84002 0.887967 3.24786
lowerneck -17.1669 3.76527 5.70983
upperneck 19.2326 5.07437 -7.63016
head 9.23382 1.82169 -2.93419
rclavicle -2.47145e-014 5.36719e-015
rhumerus -30.1237 -14.0992 -74.6745
rradius 29.815
rwrist -6.81063
rhand -18.0522 -3.14666
rfingers 7.12502
rthumb 8.21991 -32.9668
lclavicle -2.47145e-014 5.36719e-015
lhumerus -39.652 19.573 73.6424
lradius 16.3839
lwrist -8.31074
lhand -15.0294 -1.93672
lfingers 7.12502
lthumb 11.1364 27.7478
rfemur -12.7613 -1.50981 20.7215
rtibia 35.3238
rfoot -15.6649 -17.5474
rtoes -4.09801
lfemur -7.99954 -3.87487 -16.3696
ltibia 31.996
lfoot -16.2405 12.9986
ltoes -9.42017
2035
root 0.143553 17.7389 -29.7624 180.96 -5.90268 182.588
lowerback 3.37952 1.30071 -1.63864
upperback -1.81355 1.69282 2.31703
thorax -3.88624 0.897701 3.20118
lowerneck -17.236 3.70763 5.64522
upperneck 19.3147 4.99706 -7.56137
head 9.26533 1.78572 -2.9106
rclavicle -2.71652e-014 -2.22639e-014
rhumerus -30.1487 -14.2035 -74.602
rradius 29.8448
rwrist -6.85785
rhand -18.0801 -3.11319
rfingers 7.12502
rthumb 8.193 -32.9343
lclavicle -2.71652e-014 -2.22639e-014
lhumerus -39.5458 19.4559 73.5566
lradius 16.4805
lwrist -8.06538
lhand -15.0604 -1.98134
lfingers 7.12502
lthumb 11.1065 27.7048
rfemur -12.7343 -1.7001 20.7633
rtibia 35.2843
rfoot -15.7331 -17.5521
rtoes -3.93565
lfemur -8.05566 -3.96187 -16.3067
ltibia 31.9923
lfoot -16.2598 12.8939
ltoes -9.39598
2036
root 0.160693 17.7389 -29.767 180.996 -6.13215 182.529
lowerback 3.39821 1.17877 -1.8981
upperback -1.82441 1.5189 2.402
thorax -3.90616 0.819103 3.44794
lowerneck -17.2201 3.81639 5.76053
upperneck 19.3002 5.14821 -7.70715
head 9.27635 1.84791 -2.96034
rclavicle 1.40174e-014 9.93923e-015
rhumerus -30.018 -13.8677 -74.6411
rradius 29.8065
rwrist -6.91872
rhand -18.1227 -3.03028
rfingers 7.12502
rthumb 8.1519 -32.853
lclavicle 1.40174e-014 9.93923e-015
lhumerus -39.5938 19.7695 73.3499
lradius 16.6133
lwrist -7.84719
lhand -15.1131 -2.04574
lfingers 7.12502
lthumb 11.0557 27.6431
rfemur -12.7178 -1.90779 20.7469
rtibia 35.2657
rfoot -15.8145 -17.551
rtoes -3.77647
lfemur -8.10605 -4.04226 -16.2978
ltibia 31.9689
lfoot -16.2647 12.7708
ltoes -9.37912
2037
root 0.178082 17.7385 -29.7719 181.024 -6.36984 182.438
lowerback 3.4 1.07598 -2.15773
upperback -1.826 1.3706 2.46363
thorax -3.9063 0.752986 3.66938
lowerneck -17.1882 3.90579 5.88903
upperneck 19.2283 5.27257 -7.87005
head 9.26373 1.89904 -3.02099
rclavicle 5.09386e-016 3.12092e-014
rhumerus -29.9136 -13.5956 -74.656
rradius 29.762
rwrist -6.96622
rhand -18.1559 -2.97618
rfingers 7.12502
rthumb 8.11985 -32.8002
lclavicle 5.09386e-016 3.12092e-014
lhumerus -39.5714 20.0144 73.195
lradius 16.7233
lwrist -7.62267
lhand -15.1778 -2.0942
lfingers 7.12502
lthumb 10.9932 27.598
rfemur -12.6939 -2.10488 20.6969
rtibia 35.2628
rfoot -15.916 -17.5612
rtoes -3.60683
lfemur -8.13849 -4.12332 -16.3225
ltibia 31.9355
lfoot -16.2669 12.6429
ltoes -9.38419
2038
root 0.195198 17.7382 -29.775 181.056 -6.61115 182.363
lowerback 3.38992 0.972644 -2.39764
upperback -1.82391 1.22249 2.53164
thorax -3.89402 0.686113 3.8867
lowerneck -17.1539 3.98206 5.98887
upperneck 19.151 5.38265 -8.01769
head 9.24683 1.94326 -3.07339
rclavicle 1.51511e-014 3.18055e-015
rhumerus -29.8002 -13.3281 -74.6657
rradius 29.6924
rwrist -7.00666
rhand -18.1921 -2.87918
rfingers 7.12502
rthumb 8.08497 -32.7045
lclavicle 1.51511e-014 3.18055e-015
lhumerus -39.5145 20.259 73.071
lradius 16.8393
lwrist -7.38514
lhand -15.2477 -2.13146
lfingers 7.12502
lthumb 10.9259 27.5643
rfemur -12.6891 -2.28612 20.6643
rtibia 35.2693
rfoot -16.0175 -17.5841
rtoes -3.48114
lfemur -8.18621 -4.21506 -16.3312
ltibia 31.9036
lfoot -16.2613 12.5202
ltoes -9.39191
2039
root 0.213251 17.7377 -29.7777 181.08 -6.82686 182.337
lowerback 3.38804 0.932463 -2.50393
upperback -1.8188 1.16445 2.56122
thorax -3.88586 0.660193 3.98193
lowerneck -17.1699 3.98805 6.00904
upperneck 19.1123 5.39641 -8.07174
head 9.23976 1.94609 -3.09296
rclavicle -2.16178e-015 1.07344e-014
rhumerus -29.7427 -13.2665 -74.6334
rradius 29.6365
rwrist -7.02015
rhand -18.2181 -2.7902
rfingers 7.12502
rthumb 8.05984 -32.6165
lclavicle -2.16178e-015 1.07344e-014
lhumerus -39.339 20.3238 73.0291
lradius 16.9356
lwrist -7.14889
lhand -15.3111 -2.15924
lfingers 7.12502
lthumb 10.8647 27.5397
rfemur -12.6894 -2.38669 20.6987
rtibia 35.2761
rfoot -16.114 -17.6589
rtoes -3.38142
lfemur -8.23861 -4.29604 -16.2807
ltibia 31.8852
lfoot -16.2556 12.4123
ltoes -9.42694
2040
root 0.23092 17.7374 -29.7791 181.11 -7.04691 182.318
lowerback 3.41295 0.964869 -2.46211
upperback -1.82533 1.20934 2.51711
thorax -3.90858 0.681867 3.9087
lowerneck -17.2372 3.89958 5.92241
upperneck 19.135 5.28108 -7.99991
head 9.24606 1.89324 -3.06875
rclavicle 3.07122e-014 2.78299e-015
rhumerus -29.7667 -13.4825 -74.5369
rradius 29.5749
rwrist -6.99269
rhand -18.2372 -2.67972
rfingers 7.12502
rthumb 8.04142 -32.5067
lclavicle 3.07122e-014 2.78299e-015
lhumerus -39.0406 20.1382 73.087
lradius 17.0274
lwrist -6.91353
lhand -15.3639 -2.18029
lfingers 7.12502
lthumb 10.8138 27.5213
rfemur -12.7033 -2.48984 20.7398
rtibia 35.2808
rfoot -16.2042 -17.7335
rtoes -3.31772
lfemur -8.31229 -4.37817 -16.2229
ltibia 31.8837
lfoot -16.2499 12.3048
ltoes -9.48362
2041
root 0.249058 17.7368 -29.7797 181.139 -7.24302 182.354
lowerback 3.45438 1.05495 -2.28737
upperback -1.84403 1.33672 2.44371
thorax -3.95593 0.741132 3.72354
lowerneck -17.2452 3.75055 5.79251
upperneck 19.1148 5.08382 -7.88085
head 9.21785 1.80692 -3.0316
rclavicle 1.65644e-014 3.67752e-014
rhumerus -29.868 -13.8647 -74.3933
rradius 29.5277
rwrist -6.99446
rhand -18.2465 -2.58043
rfingers 7.12502
rthumb 8.03242 -32.4078
lclavicle 1.65644e-014 3.67752e-014
lhumerus -38.6726 19.7725 73.2248
lradius 17.1258
lwrist -6.67341
lhand -15.4249 -2.22719
lfingers 7.12502
lthumb 10.7549 27.4775
rfemur -12.7271 -2.5367 20.8501
rtibia 35.2801
rfoot -16.2877 -17.8376
rtoes -3.23819
lfemur -8.40266 -4.44613 -16.1003
ltibia 31.9006
lfoot -16.2448 12.2071
ltoes -9.5649
2042
root 0.266731 17.7359 -29.7799 181.166 -7.44319 182.387
lowerback 3.53283 1.15512 -2.08117
upperback -1.86666 1.47873 2.34986
thorax -4.02691 0.806959 3.49759
lowerneck -17.3113 3.59211 5.64556
upperneck 19.1597 4.8709 -7.72668
head 9.22073 1.71342 -2.98204
rclavicle 3.4281e-014 2.78299e-015
rhumerus -29.9831 -14.2995 -74.2519
rradius 29.474
rwrist -6.99207
rhand -18.2625 -2.56417
rfingers 7.12502
rthumb 8.01695 -32.3921
lclavicle 3.4281e-014 2.78299e-015
lhumerus -38.2623 19.3024 73.4246
lradius 17.2497
lwrist -6.36758
lhand -15.53 -2.24778
lfingers 7.12502
lthumb 10.6535 27.4621
rfemur -12.7476 -2.598 20.9528
rtibia 35.2772
rfoot -16.3706 -17.931
rtoes -3.16304
lfemur -8.49736 -4.51495 -15.9838
ltibia 31.9292
lfoot -16.2431 12.1102
ltoes -9.66081
2043
root 0.28435 17.7347 -29.7809 181.187 -7.64246 182.419
lowerback 3.62719 1.28616 -1.81975
upperback -1.89295 1.66451 2.2238
thorax -4.10959 0.892721 3.20322
lowerneck -17.3984 3.40447 5.48281
upperneck 19.2069 4.61617 -7.54503
head 9.22467 1.60253 -2.9257
rclavicle -1.93877e-014 -1.98785e-015
rhumerus -30.1631 -14.8415 -74.085
rradius 29.4493
rwrist -6.99729
rhand -18.2768 -2.58486
rfingers 7.12502
rthumb 8.00319 -32.4133
lclavicle -1.93877e-014 -1.98785e-015
lhumerus -37.7981 18.6788 73.6996
lradius 17.3864
lwrist -5.98723
lhand -15.6873 -2.2856
lfingers 7.12502
lthumb 10.5018 27.4321
rfemur -12.7565 -2.64936 21.0542
rtibia 35.2698
rfoot -16.4566 -18.0304
rtoes -3.05532
lfemur -8.58988 -4.58241 -15.8688
ltibia 31.969
lfoot -16.2493 12.0117
ltoes -9.75354
2044
root 0.30127 17.7335 -29.7814 181.208 -7.84751 182.443
lowerback 3.71205 1.29609 -1.75219
upperback -1.90152 1.68047 2.19883
thorax -4.16474 0.899402 3.13629
lowerneck -17.5017 3.35917 5.43682
upperneck 19.2639 4.55445 -7.49212
head 9.25623 1.57419 -2.90809
rclavicle 8.66577e-015 -1.33186e-014
rhumerus -30.185 -14.9919 -74.0519
rradius 29.3886
rwrist -7.02426
rhand -18.292 -2.62678
rfingers 7.12502
rthumb 7.98851 -32.4558
lclavicle 8.66577e-015 -1.33186e-014
lhumerus -37.458 18.357 73.9071
lradius 17.5968
lwrist -5.50665
lhand -15.8725 -2.28265
lfingers 7.12502
lthumb 10.3231 27.444
rfemur -12.7654 -2.71967 21.1425
rtibia 35.2611
rfoot -16.5357 -18.1185
rtoes -2.96522
lfemur -8.68538 -4.66155 -15.7663
ltibia 32.014
lfoot -16.2579 11.9151
ltoes -9.82529
2045
root 0.318596 17.7322 -29.7827 181.219 -8.0532 182.469
lowerback 3.78174 1.29993 -1.69136
upperback -1.89624 1.68827 2.17784
thorax -4.19662 0.901851 3.07829
lowerneck -17.6132 3.32617 5.41491
upperneck 19.2845 4.50814 -7.46222
head 9.27906 1.55343 -2.89976
rclavicle 3.21783e-014 1.66979e-014
rhumerus -30.2063 -15.1242 -74.036
rradius 29.3466
rwrist -7.05013
rhand -18.2951 -2.71383
rfingers 7.12502
rthumb 7.98549 -32.543
lclavicle 3.21783e-014 1.66979e-014
lhumerus -37.0909 17.9874 74.1635
lradius 17.8451
lwrist -4.88391
lhand -16.0388 -2.14905
lfingers 7.12502
lthumb 10.1627 27.5855
rfemur -12.7605 -2.77145 21.2375
rtibia 35.2484
rfoot -16.6108 -18.2293
rtoes -2.83103
lfemur -8.77353 -4.74408 -15.6596
ltibia 32.0669
lfoot -16.2729 11.818
ltoes -9.89446
2046
root 0.336064 17.731 -29.7839 181.222 -8.25778 182.499
lowerback 3.84503 1.29734 -1.63844
upperback -1.88781 1.68725 2.16514
thorax -4.22154 0.900052 3.03419
lowerneck -17.7058 3.28379 5.35723
upperneck 19.2917 4.45328 -7.40834
head 9.29173 1.52926 -2.87813
rclavicle -1.15373e-014 2.82274e-014
rhumerus -30.2374 -15.2342 -74.0256
rradius 29.3098
rwrist -7.05745
rhand -18.2932 -2.81907
rfingers 7.12502
rthumb 7.98732 -32.6481
lclavicle -1.15373e-014 2.82274e-014
lhumerus -36.7338 17.5994 74.4421
lradius 18.1394
lwrist -4.18159
lhand -16.1666 -1.9388
lfingers 7.12502
lthumb 10.0395 27.8017
rfemur -12.7499 -2.81402 21.339
rtibia 35.235
rfoot -16.6782 -18.3551
rtoes -2.70625
lfemur -8.85813 -4.83325 -15.5491
ltibia 32.1244
lfoot -16.2937 11.7185
ltoes -9.92958
